<svg xmlns="http://www.w3.org/2000/svg" xmlns:xlink="http://www.w3.org/1999/xlink" width="500" zoomAndPan="magnify" viewBox="0 0 375 374.999991" height="500" preserveAspectRatio="xMidYMid meet" version="1.0"><defs><g/><clipPath id="f585b0a528"><path d="M 73.257812 124 L 219 124 L 219 268.875 L 73.257812 268.875 Z M 73.257812 124 " clip-rule="nonzero"/></clipPath><clipPath id="e1a3c122f0"><path d="M 157 124 L 302.007812 124 L 302.007812 268.875 L 157 268.875 Z M 157 124 " clip-rule="nonzero"/></clipPath><clipPath id="8492d1e20c"><path d="M 115 40.125 L 261 40.125 L 261 185 L 115 185 Z M 115 40.125 " clip-rule="nonzero"/></clipPath></defs><g clip-path="url(#f585b0a528)"><path fill="#66bb6a" d="M 145.695312 124 C 105.6875 124 73.257812 156.425781 73.257812 196.4375 C 73.257812 236.445312 105.6875 268.875 145.695312 268.875 C 185.707031 268.875 218.132812 236.445312 218.132812 196.4375 C 218.132812 156.425781 185.707031 124 145.695312 124 Z M 145.695312 124 " fill-opacity="1" fill-rule="nonzero"/></g><g clip-path="url(#e1a3c122f0)"><path fill="#57a0d7" d="M 229.570312 124 C 189.5625 124 157.132812 156.425781 157.132812 196.4375 C 157.132812 236.445312 189.5625 268.875 229.570312 268.875 C 269.582031 268.875 302.007812 236.445312 302.007812 196.4375 C 302.007812 156.425781 269.582031 124 229.570312 124 Z M 229.570312 124 " fill-opacity="1" fill-rule="nonzero"/></g><path fill="#00d7d7" d="M 187.632812 137.363281 C 169.175781 150.492188 157.132812 172.058594 157.132812 196.4375 C 157.132812 220.816406 169.175781 242.378906 187.632812 255.507812 C 206.09375 242.378906 218.132812 220.816406 218.132812 196.4375 C 218.132812 172.058594 206.09375 150.492188 187.632812 137.363281 Z M 187.632812 137.363281 " fill-opacity="1" fill-rule="evenodd"/><g clip-path="url(#8492d1e20c)"><path fill="#ef5451" d="M 187.632812 40.125 C 147.625 40.125 115.195312 72.550781 115.195312 112.5625 C 115.195312 152.570312 147.625 185 187.632812 185 C 227.644531 185 260.070312 152.570312 260.070312 112.5625 C 260.070312 72.550781 227.644531 40.125 187.632812 40.125 Z M 187.632812 40.125 " fill-opacity="1" fill-rule="nonzero"/></g><path fill="#feed58" d="M 216.070312 179.207031 C 208.34375 147.515625 179.765625 124 145.695312 124 C 135.601562 124 125.988281 126.0625 117.257812 129.792969 C 124.988281 161.484375 153.566406 185 187.632812 185 C 197.730469 185 207.34375 182.9375 216.070312 179.207031 Z M 216.070312 179.207031 " fill-opacity="1" fill-rule="evenodd"/><path fill="#e300e3" d="M 258.007812 129.792969 C 249.28125 126.0625 239.667969 124 229.570312 124 C 195.503906 124 166.925781 147.515625 159.195312 179.207031 C 167.925781 182.9375 177.539062 185 187.632812 185 C 221.703125 185 250.28125 161.484375 258.007812 129.792969 Z M 258.007812 129.792969 " fill-opacity="1" fill-rule="evenodd"/><path fill="#fefefe" d="M 216.070312 179.207031 C 211.886719 162.058594 201.597656 147.296875 187.632812 137.363281 C 173.671875 147.296875 163.382812 162.058594 159.195312 179.207031 C 167.925781 182.9375 177.539062 185 187.632812 185 C 197.730469 185 207.34375 182.9375 216.070312 179.207031 Z M 216.070312 179.207031 " fill-opacity="1" fill-rule="evenodd"/><g fill="#000000" fill-opacity="1"><g transform="translate(59.987506, 321.675946)"><g><path d="M 4.890625 0 L 4.890625 -33.59375 L 16.265625 -33.59375 C 18.796875 -33.59375 21 -33.128906 22.875 -32.203125 C 24.75 -31.273438 26.195312 -29.972656 27.21875 -28.296875 C 28.238281 -26.617188 28.75 -24.625 28.75 -22.3125 C 28.75 -20.007812 28.238281 -18.019531 27.21875 -16.34375 C 26.195312 -14.664062 24.75 -13.363281 22.875 -12.4375 C 21 -11.507812 18.796875 -11.046875 16.265625 -11.046875 L 9.125 -11.046875 L 9.125 0 Z M 9.125 -14.96875 L 16.171875 -14.96875 C 21.679688 -14.96875 24.4375 -17.398438 24.4375 -22.265625 C 24.4375 -27.128906 21.679688 -29.5625 16.171875 -29.5625 L 9.125 -29.5625 Z M 9.125 -14.96875 "/></g></g></g><g fill="#000000" fill-opacity="1"><g transform="translate(90.659455, 321.675946)"><g><path d="M 0.8125 0 L 14.640625 -33.59375 L 18.578125 -33.59375 L 32.40625 0 L 27.9375 0 L 24.765625 -7.625 L 8.40625 -7.625 L 5.328125 0 Z M 10.03125 -11.5625 L 23.1875 -11.5625 L 16.609375 -27.703125 Z M 10.03125 -11.5625 "/></g></g></g><g fill="#000000" fill-opacity="1"><g transform="translate(123.875392, 321.675946)"><g><path d="M 4.890625 0 L 4.890625 -33.59375 L 9.125 -33.59375 L 9.125 -4.03125 L 25.4375 -4.03125 L 25.4375 0 Z M 4.890625 0 "/></g></g></g><g fill="#000000" fill-opacity="1"><g transform="translate(150.803349, 321.675946)"><g><path d="M 4.890625 0 L 4.890625 -33.59375 L 25.296875 -33.59375 L 25.296875 -29.65625 L 9.125 -29.65625 L 9.125 -19.0625 L 24.09375 -19.0625 L 24.09375 -15.171875 L 9.125 -15.171875 L 9.125 -3.9375 L 25.828125 -3.9375 L 25.828125 0 Z M 4.890625 0 "/></g></g></g><g fill="#000000" fill-opacity="1"><g transform="translate(179.747298, 321.675946)"><g><path d="M 13.015625 0 L 13.015625 -29.5625 L 1.625 -29.5625 L 1.625 -33.59375 L 28.5625 -33.59375 L 28.5625 -29.5625 L 17.234375 -29.5625 L 17.234375 0 Z M 13.015625 0 "/></g></g></g><g fill="#000000" fill-opacity="1"><g transform="translate(209.987244, 321.675946)"><g><path d="M 19.875 0.625 C 17.40625 0.625 15.128906 0.191406 13.046875 -0.671875 C 10.972656 -1.535156 9.164062 -2.742188 7.625 -4.296875 C 6.09375 -5.847656 4.898438 -7.6875 4.046875 -9.8125 C 3.203125 -11.945312 2.78125 -14.273438 2.78125 -16.796875 C 2.78125 -19.328125 3.195312 -21.644531 4.03125 -23.75 C 4.863281 -25.863281 6.046875 -27.703125 7.578125 -29.265625 C 9.117188 -30.835938 10.921875 -32.054688 12.984375 -32.921875 C 15.046875 -33.785156 17.3125 -34.21875 19.78125 -34.21875 C 22.332031 -34.21875 24.695312 -33.753906 26.875 -32.828125 C 29.050781 -31.898438 30.929688 -30.601562 32.515625 -28.9375 C 34.097656 -27.28125 35.242188 -25.347656 35.953125 -23.140625 L 31.34375 -23.140625 C 30.289062 -25.316406 28.769531 -27.003906 26.78125 -28.203125 C 24.800781 -29.398438 22.515625 -30 19.921875 -30 C 17.421875 -30 15.203125 -29.4375 13.265625 -28.3125 C 11.335938 -27.195312 9.828125 -25.644531 8.734375 -23.65625 C 7.648438 -21.675781 7.109375 -19.390625 7.109375 -16.796875 C 7.109375 -14.203125 7.660156 -11.910156 8.765625 -9.921875 C 9.867188 -7.941406 11.382812 -6.390625 13.3125 -5.265625 C 15.25 -4.148438 17.46875 -3.59375 19.96875 -3.59375 C 22.238281 -3.59375 24.253906 -4.039062 26.015625 -4.9375 C 27.773438 -5.832031 29.207031 -7.070312 30.3125 -8.65625 C 31.414062 -10.25 32.113281 -12.097656 32.40625 -14.203125 L 18.71875 -14.203125 L 18.71875 -18.234375 L 36.953125 -18.234375 C 37.023438 -14.554688 36.347656 -11.300781 34.921875 -8.46875 C 33.492188 -5.632812 31.492188 -3.410156 28.921875 -1.796875 C 26.347656 -0.179688 23.332031 0.625 19.875 0.625 Z M 19.875 0.625 "/></g></g></g><g fill="#000000" fill-opacity="1"><g transform="translate(249.587175, 321.675946)"><g><path d="M 4.890625 0 L 4.890625 -33.59375 L 25.296875 -33.59375 L 25.296875 -29.65625 L 9.125 -29.65625 L 9.125 -19.0625 L 24.09375 -19.0625 L 24.09375 -15.171875 L 9.125 -15.171875 L 9.125 -3.9375 L 25.828125 -3.9375 L 25.828125 0 Z M 4.890625 0 "/></g></g></g><g fill="#000000" fill-opacity="1"><g transform="translate(278.531124, 321.675946)"><g><path d="M 4.890625 0 L 4.890625 -33.59375 L 8.875 -33.59375 L 27.453125 -7.296875 L 27.453125 -33.59375 L 31.578125 -33.59375 L 31.578125 0 L 27.640625 0 L 9.078125 -26.296875 L 9.078125 0 Z M 4.890625 0 "/></g></g></g></svg>